<svg xmlns="http://www.w3.org/2000/svg" width="1200" height="630" viewBox="0 0 1200 630">
  <defs>
    <linearGradient id="bg" x1="0%" y1="0%" x2="100%" y2="100%">
      <stop offset="0%" style="stop-color:#1a1a4e;stop-opacity:1" />
      <stop offset="50%" style="stop-color:#0f2027;stop-opacity:1" />
      <stop offset="100%" style="stop-color:#111827;stop-opacity:1" />
    </linearGradient>
  </defs>
  <rect width="1200" height="630" fill="url(#bg)"/>
  <!-- Decorative grid dots -->
  <g opacity="0.06">
    <circle cx="900" cy="100" r="3" fill="white"/>
    <circle cx="940" cy="100" r="3" fill="white"/>
    <circle cx="980" cy="100" r="3" fill="white"/>
    <circle cx="1020" cy="100" r="3" fill="white"/>
    <circle cx="1060" cy="100" r="3" fill="white"/>
    <circle cx="1100" cy="100" r="3" fill="white"/>
    <circle cx="900" cy="140" r="3" fill="white"/>
    <circle cx="940" cy="140" r="3" fill="white"/>
    <circle cx="980" cy="140" r="3" fill="white"/>
    <circle cx="1020" cy="140" r="3" fill="white"/>
    <circle cx="1060" cy="140" r="3" fill="white"/>
    <circle cx="1100" cy="140" r="3" fill="white"/>
    <circle cx="900" cy="180" r="3" fill="white"/>
    <circle cx="940" cy="180" r="3" fill="white"/>
    <circle cx="980" cy="180" r="3" fill="white"/>
    <circle cx="1020" cy="180" r="3" fill="white"/>
    <circle cx="1060" cy="180" r="3" fill="white"/>
    <circle cx="1100" cy="180" r="3" fill="white"/>
    <circle cx="900" cy="220" r="3" fill="white"/>
    <circle cx="940" cy="220" r="3" fill="white"/>
    <circle cx="980" cy="220" r="3" fill="white"/>
    <circle cx="1020" cy="220" r="3" fill="white"/>
    <circle cx="1060" cy="220" r="3" fill="white"/>
    <circle cx="1100" cy="220" r="3" fill="white"/>
  </g>
  <!-- Decorative arc -->
  <path d="M 1050 400 Q 1150 300 1150 500" stroke="rgba(255,106,0,0.12)" stroke-width="2" fill="none"/>
  <path d="M 1020 400 Q 1130 290 1130 520" stroke="rgba(255,106,0,0.07)" stroke-width="1.5" fill="none"/>
  <rect x="40" y="40" width="260" height="32" rx="16" fill="rgba(255,106,0,0.15)" stroke="rgba(255,106,0,0.3)" stroke-width="1"/>
  <text x="170" y="62" font-family="system-ui, -apple-system, sans-serif" font-size="14" font-weight="500" fill="#FF6A00" text-anchor="middle">Answer Engine Optimization</text>
  <text x="80" y="240" font-family="system-ui, -apple-system, sans-serif" font-size="48" font-weight="700" fill="white">Get Google AI and ChatGPT</text>
  <text x="80" y="305" font-family="system-ui, -apple-system, sans-serif" font-size="48" font-weight="700" fill="white">to Recommend</text>
  <text x="80" y="370" font-family="system-ui, -apple-system, sans-serif" font-size="48" font-weight="700" fill="#FF6A00">Your Business</text>
  <text x="600" y="580" font-family="system-ui, -apple-system, sans-serif" font-size="16" font-weight="500" fill="rgba(255,255,255,0.5)" text-anchor="middle" letter-spacing="4">THE ANSWER ENGINE</text>
  <circle cx="1120" cy="590" r="30" fill="rgba(255,255,255,0.1)"/>
  <text x="1120" y="598" font-family="system-ui, -apple-system, sans-serif" font-size="20" font-weight="700" fill="rgba(255,255,255,0.3)" text-anchor="middle">AE</text>
</svg>