<svg xmlns="http://www.w3.org/2000/svg" width="1200" height="630" viewBox="0 0 1200 630">
  <defs>
    <linearGradient id="bg" x1="0%" y1="0%" x2="100%" y2="100%">
      <stop offset="0%" style="stop-color:#7c2d12;stop-opacity:1" />
      <stop offset="50%" style="stop-color:#3b1a5e;stop-opacity:1" />
      <stop offset="100%" style="stop-color:#111827;stop-opacity:1" />
    </linearGradient>
  </defs>
  <rect width="1200" height="630" fill="url(#bg)"/>
  <!-- Decorative Gemini-inspired star shapes -->
  <polygon points="980,130 990,160 1020,160 995,178 1005,208 980,190 955,208 965,178 940,160 970,160" fill="none" stroke="rgba(255,106,0,0.1)" stroke-width="1.5"/>
  <polygon points="1100,200 1107,218 1127,218 1111,230 1117,248 1100,238 1083,248 1089,230 1073,218 1093,218" fill="none" stroke="rgba(255,255,255,0.06)" stroke-width="1"/>
  <!-- Citation quote marks -->
  <text x="920" y="420" font-family="Georgia, serif" font-size="120" fill="rgba(255,106,0,0.06)">"</text>
  <text x="1060" y="470" font-family="Georgia, serif" font-size="120" fill="rgba(255,106,0,0.06)">"</text>
  <!-- Connecting lines -->
  <line x1="950" y1="320" x2="1100" y2="280" stroke="rgba(255,255,255,0.03)" stroke-width="1"/>
  <line x1="950" y1="350" x2="1100" y2="310" stroke="rgba(255,255,255,0.03)" stroke-width="1"/>
  <!-- Category badge -->
  <rect x="40" y="40" width="140" height="32" rx="16" fill="rgba(255,106,0,0.15)" stroke="rgba(255,106,0,0.3)" stroke-width="1"/>
  <text x="110" y="62" font-family="system-ui, -apple-system, sans-serif" font-size="14" font-weight="500" fill="#FF6A00" text-anchor="middle">AEO Education</text>
  <!-- Title -->
  <text x="80" y="240" font-family="system-ui, -apple-system, sans-serif" font-size="48" font-weight="700" fill="white">Get Your Business Cited</text>
  <text x="80" y="305" font-family="system-ui, -apple-system, sans-serif" font-size="48" font-weight="700" fill="white">in</text>
  <text x="80" y="370" font-family="system-ui, -apple-system, sans-serif" font-size="48" font-weight="700" fill="#FF6A00">Google Gemini</text>
  <!-- Footer -->
  <text x="600" y="580" font-family="system-ui, -apple-system, sans-serif" font-size="16" font-weight="500" fill="rgba(255,255,255,0.5)" text-anchor="middle" letter-spacing="4">THE ANSWER ENGINE</text>
  <circle cx="1120" cy="590" r="30" fill="rgba(255,255,255,0.1)"/>
  <text x="1120" y="598" font-family="system-ui, -apple-system, sans-serif" font-size="20" font-weight="700" fill="rgba(255,255,255,0.3)" text-anchor="middle">AE</text>
</svg>